G04 #@! TF.GenerationSoftware,KiCad,Pcbnew,(5.1.5-0-10_14)*
G04 #@! TF.CreationDate,2020-01-05T23:21:06-06:00*
G04 #@! TF.ProjectId,usb-c,7573622d-632e-46b6-9963-61645f706362,rev?*
G04 #@! TF.SameCoordinates,Original*
G04 #@! TF.FileFunction,Copper,L1,Top*
G04 #@! TF.FilePolarity,Positive*
%FSLAX46Y46*%
G04 Gerber Fmt 4.6, Leading zero omitted, Abs format (unit mm)*
G04 Created by KiCad (PCBNEW (5.1.5-0-10_14)) date 2020-01-05 23:21:06*
%MOMM*%
%LPD*%
G04 APERTURE LIST*
%ADD10R,2.450000X0.600000*%
%ADD11R,2.450000X0.300000*%
%ADD12O,2.100000X1.000000*%
%ADD13O,1.600000X1.000000*%
%ADD14C,0.100000*%
%ADD15O,1.700000X1.700000*%
%ADD16R,1.700000X1.700000*%
%ADD17C,0.250000*%
%ADD18C,0.254000*%
G04 APERTURE END LIST*
D10*
X126305000Y-158165000D03*
X126305000Y-151715000D03*
X126305000Y-157390000D03*
X126305000Y-152490000D03*
D11*
X126305000Y-153190000D03*
X126305000Y-156690000D03*
X126305000Y-153690000D03*
X126305000Y-156190000D03*
X126305000Y-154190000D03*
X126305000Y-155690000D03*
X126305000Y-155190000D03*
X126305000Y-154690000D03*
D12*
X124890000Y-150620000D03*
X124890000Y-159260000D03*
D13*
X120710000Y-150620000D03*
X120710000Y-159260000D03*
G04 #@! TA.AperFunction,SMDPad,CuDef*
D14*
G36*
X127269504Y-161686204D02*
G01*
X127293773Y-161689804D01*
X127317571Y-161695765D01*
X127340671Y-161704030D01*
X127362849Y-161714520D01*
X127383893Y-161727133D01*
X127403598Y-161741747D01*
X127421777Y-161758223D01*
X127438253Y-161776402D01*
X127452867Y-161796107D01*
X127465480Y-161817151D01*
X127475970Y-161839329D01*
X127484235Y-161862429D01*
X127490196Y-161886227D01*
X127493796Y-161910496D01*
X127495000Y-161935000D01*
X127495000Y-163185000D01*
X127493796Y-163209504D01*
X127490196Y-163233773D01*
X127484235Y-163257571D01*
X127475970Y-163280671D01*
X127465480Y-163302849D01*
X127452867Y-163323893D01*
X127438253Y-163343598D01*
X127421777Y-163361777D01*
X127403598Y-163378253D01*
X127383893Y-163392867D01*
X127362849Y-163405480D01*
X127340671Y-163415970D01*
X127317571Y-163424235D01*
X127293773Y-163430196D01*
X127269504Y-163433796D01*
X127245000Y-163435000D01*
X126320000Y-163435000D01*
X126295496Y-163433796D01*
X126271227Y-163430196D01*
X126247429Y-163424235D01*
X126224329Y-163415970D01*
X126202151Y-163405480D01*
X126181107Y-163392867D01*
X126161402Y-163378253D01*
X126143223Y-163361777D01*
X126126747Y-163343598D01*
X126112133Y-163323893D01*
X126099520Y-163302849D01*
X126089030Y-163280671D01*
X126080765Y-163257571D01*
X126074804Y-163233773D01*
X126071204Y-163209504D01*
X126070000Y-163185000D01*
X126070000Y-161935000D01*
X126071204Y-161910496D01*
X126074804Y-161886227D01*
X126080765Y-161862429D01*
X126089030Y-161839329D01*
X126099520Y-161817151D01*
X126112133Y-161796107D01*
X126126747Y-161776402D01*
X126143223Y-161758223D01*
X126161402Y-161741747D01*
X126181107Y-161727133D01*
X126202151Y-161714520D01*
X126224329Y-161704030D01*
X126247429Y-161695765D01*
X126271227Y-161689804D01*
X126295496Y-161686204D01*
X126320000Y-161685000D01*
X127245000Y-161685000D01*
X127269504Y-161686204D01*
G37*
G04 #@! TD.AperFunction*
G04 #@! TA.AperFunction,SMDPad,CuDef*
G36*
X130244504Y-161686204D02*
G01*
X130268773Y-161689804D01*
X130292571Y-161695765D01*
X130315671Y-161704030D01*
X130337849Y-161714520D01*
X130358893Y-161727133D01*
X130378598Y-161741747D01*
X130396777Y-161758223D01*
X130413253Y-161776402D01*
X130427867Y-161796107D01*
X130440480Y-161817151D01*
X130450970Y-161839329D01*
X130459235Y-161862429D01*
X130465196Y-161886227D01*
X130468796Y-161910496D01*
X130470000Y-161935000D01*
X130470000Y-163185000D01*
X130468796Y-163209504D01*
X130465196Y-163233773D01*
X130459235Y-163257571D01*
X130450970Y-163280671D01*
X130440480Y-163302849D01*
X130427867Y-163323893D01*
X130413253Y-163343598D01*
X130396777Y-163361777D01*
X130378598Y-163378253D01*
X130358893Y-163392867D01*
X130337849Y-163405480D01*
X130315671Y-163415970D01*
X130292571Y-163424235D01*
X130268773Y-163430196D01*
X130244504Y-163433796D01*
X130220000Y-163435000D01*
X129295000Y-163435000D01*
X129270496Y-163433796D01*
X129246227Y-163430196D01*
X129222429Y-163424235D01*
X129199329Y-163415970D01*
X129177151Y-163405480D01*
X129156107Y-163392867D01*
X129136402Y-163378253D01*
X129118223Y-163361777D01*
X129101747Y-163343598D01*
X129087133Y-163323893D01*
X129074520Y-163302849D01*
X129064030Y-163280671D01*
X129055765Y-163257571D01*
X129049804Y-163233773D01*
X129046204Y-163209504D01*
X129045000Y-163185000D01*
X129045000Y-161935000D01*
X129046204Y-161910496D01*
X129049804Y-161886227D01*
X129055765Y-161862429D01*
X129064030Y-161839329D01*
X129074520Y-161817151D01*
X129087133Y-161796107D01*
X129101747Y-161776402D01*
X129118223Y-161758223D01*
X129136402Y-161741747D01*
X129156107Y-161727133D01*
X129177151Y-161714520D01*
X129199329Y-161704030D01*
X129222429Y-161695765D01*
X129246227Y-161689804D01*
X129270496Y-161686204D01*
X129295000Y-161685000D01*
X130220000Y-161685000D01*
X130244504Y-161686204D01*
G37*
G04 #@! TD.AperFunction*
G04 #@! TA.AperFunction,SMDPad,CuDef*
G36*
X127269504Y-146446204D02*
G01*
X127293773Y-146449804D01*
X127317571Y-146455765D01*
X127340671Y-146464030D01*
X127362849Y-146474520D01*
X127383893Y-146487133D01*
X127403598Y-146501747D01*
X127421777Y-146518223D01*
X127438253Y-146536402D01*
X127452867Y-146556107D01*
X127465480Y-146577151D01*
X127475970Y-146599329D01*
X127484235Y-146622429D01*
X127490196Y-146646227D01*
X127493796Y-146670496D01*
X127495000Y-146695000D01*
X127495000Y-147945000D01*
X127493796Y-147969504D01*
X127490196Y-147993773D01*
X127484235Y-148017571D01*
X127475970Y-148040671D01*
X127465480Y-148062849D01*
X127452867Y-148083893D01*
X127438253Y-148103598D01*
X127421777Y-148121777D01*
X127403598Y-148138253D01*
X127383893Y-148152867D01*
X127362849Y-148165480D01*
X127340671Y-148175970D01*
X127317571Y-148184235D01*
X127293773Y-148190196D01*
X127269504Y-148193796D01*
X127245000Y-148195000D01*
X126320000Y-148195000D01*
X126295496Y-148193796D01*
X126271227Y-148190196D01*
X126247429Y-148184235D01*
X126224329Y-148175970D01*
X126202151Y-148165480D01*
X126181107Y-148152867D01*
X126161402Y-148138253D01*
X126143223Y-148121777D01*
X126126747Y-148103598D01*
X126112133Y-148083893D01*
X126099520Y-148062849D01*
X126089030Y-148040671D01*
X126080765Y-148017571D01*
X126074804Y-147993773D01*
X126071204Y-147969504D01*
X126070000Y-147945000D01*
X126070000Y-146695000D01*
X126071204Y-146670496D01*
X126074804Y-146646227D01*
X126080765Y-146622429D01*
X126089030Y-146599329D01*
X126099520Y-146577151D01*
X126112133Y-146556107D01*
X126126747Y-146536402D01*
X126143223Y-146518223D01*
X126161402Y-146501747D01*
X126181107Y-146487133D01*
X126202151Y-146474520D01*
X126224329Y-146464030D01*
X126247429Y-146455765D01*
X126271227Y-146449804D01*
X126295496Y-146446204D01*
X126320000Y-146445000D01*
X127245000Y-146445000D01*
X127269504Y-146446204D01*
G37*
G04 #@! TD.AperFunction*
G04 #@! TA.AperFunction,SMDPad,CuDef*
G36*
X130244504Y-146446204D02*
G01*
X130268773Y-146449804D01*
X130292571Y-146455765D01*
X130315671Y-146464030D01*
X130337849Y-146474520D01*
X130358893Y-146487133D01*
X130378598Y-146501747D01*
X130396777Y-146518223D01*
X130413253Y-146536402D01*
X130427867Y-146556107D01*
X130440480Y-146577151D01*
X130450970Y-146599329D01*
X130459235Y-146622429D01*
X130465196Y-146646227D01*
X130468796Y-146670496D01*
X130470000Y-146695000D01*
X130470000Y-147945000D01*
X130468796Y-147969504D01*
X130465196Y-147993773D01*
X130459235Y-148017571D01*
X130450970Y-148040671D01*
X130440480Y-148062849D01*
X130427867Y-148083893D01*
X130413253Y-148103598D01*
X130396777Y-148121777D01*
X130378598Y-148138253D01*
X130358893Y-148152867D01*
X130337849Y-148165480D01*
X130315671Y-148175970D01*
X130292571Y-148184235D01*
X130268773Y-148190196D01*
X130244504Y-148193796D01*
X130220000Y-148195000D01*
X129295000Y-148195000D01*
X129270496Y-148193796D01*
X129246227Y-148190196D01*
X129222429Y-148184235D01*
X129199329Y-148175970D01*
X129177151Y-148165480D01*
X129156107Y-148152867D01*
X129136402Y-148138253D01*
X129118223Y-148121777D01*
X129101747Y-148103598D01*
X129087133Y-148083893D01*
X129074520Y-148062849D01*
X129064030Y-148040671D01*
X129055765Y-148017571D01*
X129049804Y-147993773D01*
X129046204Y-147969504D01*
X129045000Y-147945000D01*
X129045000Y-146695000D01*
X129046204Y-146670496D01*
X129049804Y-146646227D01*
X129055765Y-146622429D01*
X129064030Y-146599329D01*
X129074520Y-146577151D01*
X129087133Y-146556107D01*
X129101747Y-146536402D01*
X129118223Y-146518223D01*
X129136402Y-146501747D01*
X129156107Y-146487133D01*
X129177151Y-146474520D01*
X129199329Y-146464030D01*
X129222429Y-146455765D01*
X129246227Y-146449804D01*
X129270496Y-146446204D01*
X129295000Y-146445000D01*
X130220000Y-146445000D01*
X130244504Y-146446204D01*
G37*
G04 #@! TD.AperFunction*
D15*
X133350000Y-146050000D03*
X133350000Y-148590000D03*
X133350000Y-151130000D03*
X133350000Y-153670000D03*
X133350000Y-156210000D03*
X133350000Y-158750000D03*
X133350000Y-161290000D03*
D16*
X133350000Y-163830000D03*
D17*
X127483180Y-146119990D02*
X128270000Y-146906810D01*
X126305000Y-157390000D02*
X124882002Y-157390000D01*
X123064980Y-155572978D02*
X123064980Y-149136830D01*
X126081820Y-146119990D02*
X127483180Y-146119990D01*
X123064980Y-149136830D02*
X126081820Y-146119990D01*
X124882002Y-157390000D02*
X123064980Y-155572978D01*
X129450000Y-152490000D02*
X133350000Y-148590000D01*
X126305000Y-152490000D02*
X129450000Y-152490000D01*
X132147919Y-148590000D02*
X133350000Y-148590000D01*
X129126810Y-148590000D02*
X132147919Y-148590000D01*
X128270000Y-147733190D02*
X129126810Y-148590000D01*
X128270000Y-146906810D02*
X128270000Y-147733190D01*
X126305000Y-155190000D02*
X124710000Y-155190000D01*
X124710000Y-155190000D02*
X124460000Y-154940000D01*
X124830000Y-154190000D02*
X126305000Y-154190000D01*
X124460000Y-154560000D02*
X124830000Y-154190000D01*
X124460000Y-154940000D02*
X124460000Y-154560000D01*
X131330000Y-154190000D02*
X133350000Y-156210000D01*
X126305000Y-154190000D02*
X131330000Y-154190000D01*
X130290000Y-155690000D02*
X126305000Y-155690000D01*
X133350000Y-158750000D02*
X130290000Y-155690000D01*
X129290000Y-154690000D02*
X130290000Y-155690000D01*
X126305000Y-154690000D02*
X129290000Y-154690000D01*
X125210000Y-150620000D02*
X126305000Y-151715000D01*
X124890000Y-150620000D02*
X125210000Y-150620000D01*
X125210000Y-159260000D02*
X126305000Y-158165000D01*
X124890000Y-159260000D02*
X125210000Y-159260000D01*
X131290000Y-153190000D02*
X126305000Y-153190000D01*
X133350000Y-151130000D02*
X131290000Y-153190000D01*
X128250000Y-156190000D02*
X126305000Y-156190000D01*
X133350000Y-161290000D02*
X128250000Y-156190000D01*
X130470000Y-147320000D02*
X129757500Y-147320000D01*
X134525001Y-148025999D02*
X133819002Y-147320000D01*
X134525001Y-152494999D02*
X134525001Y-148025999D01*
X133819002Y-147320000D02*
X130470000Y-147320000D01*
X133350000Y-153670000D02*
X134525001Y-152494999D01*
X129757500Y-162560000D02*
X130810000Y-162560000D01*
X132080000Y-163830000D02*
X133350000Y-163830000D01*
X130810000Y-162560000D02*
X132080000Y-163830000D01*
X124830000Y-153690000D02*
X126305000Y-153690000D01*
X123514990Y-149875010D02*
X123514990Y-152374990D01*
X123514990Y-152374990D02*
X124830000Y-153690000D01*
X126070000Y-147320000D02*
X123514990Y-149875010D01*
X126782500Y-147320000D02*
X126070000Y-147320000D01*
X127495000Y-162560000D02*
X128270000Y-161785000D01*
X126782500Y-162560000D02*
X127495000Y-162560000D01*
X127780000Y-156690000D02*
X126305000Y-156690000D01*
X128270000Y-157180000D02*
X127780000Y-156690000D01*
X128270000Y-161785000D02*
X128270000Y-157180000D01*
D18*
G36*
X135230001Y-147732730D02*
G01*
X135159975Y-147601723D01*
X135065002Y-147485998D01*
X135036003Y-147462200D01*
X134522987Y-146949184D01*
X134621641Y-146816920D01*
X134746825Y-146554099D01*
X134791476Y-146406890D01*
X134670155Y-146177000D01*
X133477000Y-146177000D01*
X133477000Y-146197000D01*
X133223000Y-146197000D01*
X133223000Y-146177000D01*
X132029845Y-146177000D01*
X131908524Y-146406890D01*
X131953175Y-146554099D01*
X131955986Y-146560000D01*
X131094776Y-146560000D01*
X131091008Y-146521746D01*
X131040472Y-146355150D01*
X130958405Y-146201614D01*
X130847962Y-146067038D01*
X130713386Y-145956595D01*
X130559850Y-145874528D01*
X130393254Y-145823992D01*
X130220000Y-145806928D01*
X129295000Y-145806928D01*
X129121746Y-145823992D01*
X128955150Y-145874528D01*
X128801614Y-145956595D01*
X128667038Y-146067038D01*
X128594012Y-146156021D01*
X128131101Y-145693110D01*
X131908524Y-145693110D01*
X132029845Y-145923000D01*
X133223000Y-145923000D01*
X133223000Y-144729186D01*
X133477000Y-144729186D01*
X133477000Y-145923000D01*
X134670155Y-145923000D01*
X134791476Y-145693110D01*
X134746825Y-145545901D01*
X134621641Y-145283080D01*
X134447588Y-145049731D01*
X134231355Y-144854822D01*
X133981252Y-144705843D01*
X133706891Y-144608519D01*
X133477000Y-144729186D01*
X133223000Y-144729186D01*
X132993109Y-144608519D01*
X132718748Y-144705843D01*
X132468645Y-144854822D01*
X132252412Y-145049731D01*
X132078359Y-145283080D01*
X131953175Y-145545901D01*
X131908524Y-145693110D01*
X128131101Y-145693110D01*
X128046983Y-145608992D01*
X128023181Y-145579989D01*
X127907456Y-145485016D01*
X127775427Y-145414444D01*
X127632166Y-145370987D01*
X127520513Y-145359990D01*
X127520502Y-145359990D01*
X127483180Y-145356314D01*
X127445858Y-145359990D01*
X126119142Y-145359990D01*
X126081819Y-145356314D01*
X126044496Y-145359990D01*
X126044487Y-145359990D01*
X125932834Y-145370987D01*
X125789573Y-145414444D01*
X125657543Y-145485016D01*
X125583355Y-145545901D01*
X125541819Y-145579989D01*
X125518021Y-145608987D01*
X122553978Y-148573031D01*
X122524980Y-148596829D01*
X122501182Y-148625827D01*
X122501181Y-148625828D01*
X122430006Y-148712554D01*
X122359434Y-148844584D01*
X122315978Y-148987845D01*
X122301304Y-149136830D01*
X122304981Y-149174162D01*
X122304980Y-155535655D01*
X122301304Y-155572978D01*
X122304980Y-155610300D01*
X122304980Y-155610310D01*
X122315977Y-155721963D01*
X122336975Y-155791185D01*
X122359434Y-155865224D01*
X122430006Y-155997254D01*
X122440026Y-156009463D01*
X122524979Y-156112979D01*
X122553983Y-156136782D01*
X123624778Y-157207577D01*
X123614319Y-157218036D01*
X123509259Y-157375269D01*
X123436892Y-157549978D01*
X123400000Y-157735448D01*
X123400000Y-157924552D01*
X123436892Y-158110022D01*
X123509259Y-158284731D01*
X123588206Y-158402884D01*
X123447631Y-158547236D01*
X123325724Y-158735024D01*
X123245881Y-158958126D01*
X123372046Y-159133000D01*
X124763000Y-159133000D01*
X124763000Y-159113000D01*
X125017000Y-159113000D01*
X125017000Y-159133000D01*
X126407954Y-159133000D01*
X126431762Y-159100000D01*
X126432002Y-159100000D01*
X126432002Y-159099668D01*
X126498394Y-159007644D01*
X126590750Y-159100000D01*
X127510001Y-159103007D01*
X127510000Y-161091823D01*
X127418254Y-161063992D01*
X127245000Y-161046928D01*
X126320000Y-161046928D01*
X126146746Y-161063992D01*
X125980150Y-161114528D01*
X125826614Y-161196595D01*
X125692038Y-161307038D01*
X125581595Y-161441614D01*
X125499528Y-161595150D01*
X125448992Y-161761746D01*
X125431928Y-161935000D01*
X125431928Y-163185000D01*
X125448992Y-163358254D01*
X125499528Y-163524850D01*
X125581595Y-163678386D01*
X125692038Y-163812962D01*
X125826614Y-163923405D01*
X125980150Y-164005472D01*
X126146746Y-164056008D01*
X126320000Y-164073072D01*
X127245000Y-164073072D01*
X127418254Y-164056008D01*
X127584850Y-164005472D01*
X127738386Y-163923405D01*
X127872962Y-163812962D01*
X127983405Y-163678386D01*
X128065472Y-163524850D01*
X128116008Y-163358254D01*
X128133072Y-163185000D01*
X128133072Y-162996729D01*
X128406928Y-162722873D01*
X128406928Y-163185000D01*
X128423992Y-163358254D01*
X128474528Y-163524850D01*
X128556595Y-163678386D01*
X128667038Y-163812962D01*
X128801614Y-163923405D01*
X128955150Y-164005472D01*
X129121746Y-164056008D01*
X129295000Y-164073072D01*
X130220000Y-164073072D01*
X130393254Y-164056008D01*
X130559850Y-164005472D01*
X130713386Y-163923405D01*
X130847962Y-163812962D01*
X130911157Y-163735958D01*
X131516201Y-164341003D01*
X131539999Y-164370001D01*
X131655724Y-164464974D01*
X131787753Y-164535546D01*
X131861928Y-164558046D01*
X131861928Y-164680000D01*
X131874188Y-164804482D01*
X131910498Y-164924180D01*
X131969463Y-165034494D01*
X132048815Y-165131185D01*
X132145506Y-165210537D01*
X132255820Y-165269502D01*
X132375518Y-165305812D01*
X132500000Y-165318072D01*
X134200000Y-165318072D01*
X134324482Y-165305812D01*
X134444180Y-165269502D01*
X134554494Y-165210537D01*
X134651185Y-165131185D01*
X134730537Y-165034494D01*
X134789502Y-164924180D01*
X134825812Y-164804482D01*
X134838072Y-164680000D01*
X134838072Y-162980000D01*
X134825812Y-162855518D01*
X134789502Y-162735820D01*
X134730537Y-162625506D01*
X134651185Y-162528815D01*
X134554494Y-162449463D01*
X134444180Y-162390498D01*
X134371620Y-162368487D01*
X134503475Y-162236632D01*
X134665990Y-161993411D01*
X134777932Y-161723158D01*
X134835000Y-161436260D01*
X134835000Y-161143740D01*
X134777932Y-160856842D01*
X134665990Y-160586589D01*
X134503475Y-160343368D01*
X134296632Y-160136525D01*
X134122240Y-160020000D01*
X134296632Y-159903475D01*
X134503475Y-159696632D01*
X134665990Y-159453411D01*
X134777932Y-159183158D01*
X134835000Y-158896260D01*
X134835000Y-158603740D01*
X134777932Y-158316842D01*
X134665990Y-158046589D01*
X134503475Y-157803368D01*
X134296632Y-157596525D01*
X134122240Y-157480000D01*
X134296632Y-157363475D01*
X134503475Y-157156632D01*
X134665990Y-156913411D01*
X134777932Y-156643158D01*
X134835000Y-156356260D01*
X134835000Y-156063740D01*
X134777932Y-155776842D01*
X134665990Y-155506589D01*
X134503475Y-155263368D01*
X134296632Y-155056525D01*
X134122240Y-154940000D01*
X134296632Y-154823475D01*
X134503475Y-154616632D01*
X134665990Y-154373411D01*
X134777932Y-154103158D01*
X134835000Y-153816260D01*
X134835000Y-153523740D01*
X134791210Y-153303592D01*
X135036005Y-153058797D01*
X135065002Y-153035000D01*
X135159975Y-152919275D01*
X135230001Y-152788268D01*
X135230000Y-165710000D01*
X120040000Y-165710000D01*
X120040000Y-160338094D01*
X120064013Y-160348415D01*
X120283000Y-160395000D01*
X120583000Y-160395000D01*
X120583000Y-159387000D01*
X120837000Y-159387000D01*
X120837000Y-160395000D01*
X121137000Y-160395000D01*
X121355987Y-160348415D01*
X121561678Y-160260003D01*
X121746169Y-160133161D01*
X121902369Y-159972764D01*
X122024276Y-159784976D01*
X122104119Y-159561874D01*
X123245881Y-159561874D01*
X123325724Y-159784976D01*
X123447631Y-159972764D01*
X123603831Y-160133161D01*
X123788322Y-160260003D01*
X123994013Y-160348415D01*
X124213000Y-160395000D01*
X124763000Y-160395000D01*
X124763000Y-159387000D01*
X125017000Y-159387000D01*
X125017000Y-160395000D01*
X125567000Y-160395000D01*
X125785987Y-160348415D01*
X125991678Y-160260003D01*
X126176169Y-160133161D01*
X126332369Y-159972764D01*
X126454276Y-159784976D01*
X126534119Y-159561874D01*
X126407954Y-159387000D01*
X125017000Y-159387000D01*
X124763000Y-159387000D01*
X123372046Y-159387000D01*
X123245881Y-159561874D01*
X122104119Y-159561874D01*
X121977954Y-159387000D01*
X120837000Y-159387000D01*
X120583000Y-159387000D01*
X120563000Y-159387000D01*
X120563000Y-159133000D01*
X120583000Y-159133000D01*
X120583000Y-158125000D01*
X120837000Y-158125000D01*
X120837000Y-159133000D01*
X121977954Y-159133000D01*
X122104119Y-158958126D01*
X122024276Y-158735024D01*
X121902369Y-158547236D01*
X121746169Y-158386839D01*
X121561678Y-158259997D01*
X121355987Y-158171585D01*
X121137000Y-158125000D01*
X120837000Y-158125000D01*
X120583000Y-158125000D01*
X120283000Y-158125000D01*
X120064013Y-158171585D01*
X120040000Y-158181906D01*
X120040000Y-151698094D01*
X120064013Y-151708415D01*
X120283000Y-151755000D01*
X120583000Y-151755000D01*
X120583000Y-150747000D01*
X120837000Y-150747000D01*
X120837000Y-151755000D01*
X121137000Y-151755000D01*
X121355987Y-151708415D01*
X121561678Y-151620003D01*
X121746169Y-151493161D01*
X121902369Y-151332764D01*
X122024276Y-151144976D01*
X122104119Y-150921874D01*
X121977954Y-150747000D01*
X120837000Y-150747000D01*
X120583000Y-150747000D01*
X120563000Y-150747000D01*
X120563000Y-150493000D01*
X120583000Y-150493000D01*
X120583000Y-149485000D01*
X120837000Y-149485000D01*
X120837000Y-150493000D01*
X121977954Y-150493000D01*
X122104119Y-150318126D01*
X122024276Y-150095024D01*
X121902369Y-149907236D01*
X121746169Y-149746839D01*
X121561678Y-149619997D01*
X121355987Y-149531585D01*
X121137000Y-149485000D01*
X120837000Y-149485000D01*
X120583000Y-149485000D01*
X120283000Y-149485000D01*
X120064013Y-149531585D01*
X120040000Y-149541906D01*
X120040000Y-144170000D01*
X135230001Y-144170000D01*
X135230001Y-147732730D01*
G37*
X135230001Y-147732730D02*
X135159975Y-147601723D01*
X135065002Y-147485998D01*
X135036003Y-147462200D01*
X134522987Y-146949184D01*
X134621641Y-146816920D01*
X134746825Y-146554099D01*
X134791476Y-146406890D01*
X134670155Y-146177000D01*
X133477000Y-146177000D01*
X133477000Y-146197000D01*
X133223000Y-146197000D01*
X133223000Y-146177000D01*
X132029845Y-146177000D01*
X131908524Y-146406890D01*
X131953175Y-146554099D01*
X131955986Y-146560000D01*
X131094776Y-146560000D01*
X131091008Y-146521746D01*
X131040472Y-146355150D01*
X130958405Y-146201614D01*
X130847962Y-146067038D01*
X130713386Y-145956595D01*
X130559850Y-145874528D01*
X130393254Y-145823992D01*
X130220000Y-145806928D01*
X129295000Y-145806928D01*
X129121746Y-145823992D01*
X128955150Y-145874528D01*
X128801614Y-145956595D01*
X128667038Y-146067038D01*
X128594012Y-146156021D01*
X128131101Y-145693110D01*
X131908524Y-145693110D01*
X132029845Y-145923000D01*
X133223000Y-145923000D01*
X133223000Y-144729186D01*
X133477000Y-144729186D01*
X133477000Y-145923000D01*
X134670155Y-145923000D01*
X134791476Y-145693110D01*
X134746825Y-145545901D01*
X134621641Y-145283080D01*
X134447588Y-145049731D01*
X134231355Y-144854822D01*
X133981252Y-144705843D01*
X133706891Y-144608519D01*
X133477000Y-144729186D01*
X133223000Y-144729186D01*
X132993109Y-144608519D01*
X132718748Y-144705843D01*
X132468645Y-144854822D01*
X132252412Y-145049731D01*
X132078359Y-145283080D01*
X131953175Y-145545901D01*
X131908524Y-145693110D01*
X128131101Y-145693110D01*
X128046983Y-145608992D01*
X128023181Y-145579989D01*
X127907456Y-145485016D01*
X127775427Y-145414444D01*
X127632166Y-145370987D01*
X127520513Y-145359990D01*
X127520502Y-145359990D01*
X127483180Y-145356314D01*
X127445858Y-145359990D01*
X126119142Y-145359990D01*
X126081819Y-145356314D01*
X126044496Y-145359990D01*
X126044487Y-145359990D01*
X125932834Y-145370987D01*
X125789573Y-145414444D01*
X125657543Y-145485016D01*
X125583355Y-145545901D01*
X125541819Y-145579989D01*
X125518021Y-145608987D01*
X122553978Y-148573031D01*
X122524980Y-148596829D01*
X122501182Y-148625827D01*
X122501181Y-148625828D01*
X122430006Y-148712554D01*
X122359434Y-148844584D01*
X122315978Y-148987845D01*
X122301304Y-149136830D01*
X122304981Y-149174162D01*
X122304980Y-155535655D01*
X122301304Y-155572978D01*
X122304980Y-155610300D01*
X122304980Y-155610310D01*
X122315977Y-155721963D01*
X122336975Y-155791185D01*
X122359434Y-155865224D01*
X122430006Y-155997254D01*
X122440026Y-156009463D01*
X122524979Y-156112979D01*
X122553983Y-156136782D01*
X123624778Y-157207577D01*
X123614319Y-157218036D01*
X123509259Y-157375269D01*
X123436892Y-157549978D01*
X123400000Y-157735448D01*
X123400000Y-157924552D01*
X123436892Y-158110022D01*
X123509259Y-158284731D01*
X123588206Y-158402884D01*
X123447631Y-158547236D01*
X123325724Y-158735024D01*
X123245881Y-158958126D01*
X123372046Y-159133000D01*
X124763000Y-159133000D01*
X124763000Y-159113000D01*
X125017000Y-159113000D01*
X125017000Y-159133000D01*
X126407954Y-159133000D01*
X126431762Y-159100000D01*
X126432002Y-159100000D01*
X126432002Y-159099668D01*
X126498394Y-159007644D01*
X126590750Y-159100000D01*
X127510001Y-159103007D01*
X127510000Y-161091823D01*
X127418254Y-161063992D01*
X127245000Y-161046928D01*
X126320000Y-161046928D01*
X126146746Y-161063992D01*
X125980150Y-161114528D01*
X125826614Y-161196595D01*
X125692038Y-161307038D01*
X125581595Y-161441614D01*
X125499528Y-161595150D01*
X125448992Y-161761746D01*
X125431928Y-161935000D01*
X125431928Y-163185000D01*
X125448992Y-163358254D01*
X125499528Y-163524850D01*
X125581595Y-163678386D01*
X125692038Y-163812962D01*
X125826614Y-163923405D01*
X125980150Y-164005472D01*
X126146746Y-164056008D01*
X126320000Y-164073072D01*
X127245000Y-164073072D01*
X127418254Y-164056008D01*
X127584850Y-164005472D01*
X127738386Y-163923405D01*
X127872962Y-163812962D01*
X127983405Y-163678386D01*
X128065472Y-163524850D01*
X128116008Y-163358254D01*
X128133072Y-163185000D01*
X128133072Y-162996729D01*
X128406928Y-162722873D01*
X128406928Y-163185000D01*
X128423992Y-163358254D01*
X128474528Y-163524850D01*
X128556595Y-163678386D01*
X128667038Y-163812962D01*
X128801614Y-163923405D01*
X128955150Y-164005472D01*
X129121746Y-164056008D01*
X129295000Y-164073072D01*
X130220000Y-164073072D01*
X130393254Y-164056008D01*
X130559850Y-164005472D01*
X130713386Y-163923405D01*
X130847962Y-163812962D01*
X130911157Y-163735958D01*
X131516201Y-164341003D01*
X131539999Y-164370001D01*
X131655724Y-164464974D01*
X131787753Y-164535546D01*
X131861928Y-164558046D01*
X131861928Y-164680000D01*
X131874188Y-164804482D01*
X131910498Y-164924180D01*
X131969463Y-165034494D01*
X132048815Y-165131185D01*
X132145506Y-165210537D01*
X132255820Y-165269502D01*
X132375518Y-165305812D01*
X132500000Y-165318072D01*
X134200000Y-165318072D01*
X134324482Y-165305812D01*
X134444180Y-165269502D01*
X134554494Y-165210537D01*
X134651185Y-165131185D01*
X134730537Y-165034494D01*
X134789502Y-164924180D01*
X134825812Y-164804482D01*
X134838072Y-164680000D01*
X134838072Y-162980000D01*
X134825812Y-162855518D01*
X134789502Y-162735820D01*
X134730537Y-162625506D01*
X134651185Y-162528815D01*
X134554494Y-162449463D01*
X134444180Y-162390498D01*
X134371620Y-162368487D01*
X134503475Y-162236632D01*
X134665990Y-161993411D01*
X134777932Y-161723158D01*
X134835000Y-161436260D01*
X134835000Y-161143740D01*
X134777932Y-160856842D01*
X134665990Y-160586589D01*
X134503475Y-160343368D01*
X134296632Y-160136525D01*
X134122240Y-160020000D01*
X134296632Y-159903475D01*
X134503475Y-159696632D01*
X134665990Y-159453411D01*
X134777932Y-159183158D01*
X134835000Y-158896260D01*
X134835000Y-158603740D01*
X134777932Y-158316842D01*
X134665990Y-158046589D01*
X134503475Y-157803368D01*
X134296632Y-157596525D01*
X134122240Y-157480000D01*
X134296632Y-157363475D01*
X134503475Y-157156632D01*
X134665990Y-156913411D01*
X134777932Y-156643158D01*
X134835000Y-156356260D01*
X134835000Y-156063740D01*
X134777932Y-155776842D01*
X134665990Y-155506589D01*
X134503475Y-155263368D01*
X134296632Y-155056525D01*
X134122240Y-154940000D01*
X134296632Y-154823475D01*
X134503475Y-154616632D01*
X134665990Y-154373411D01*
X134777932Y-154103158D01*
X134835000Y-153816260D01*
X134835000Y-153523740D01*
X134791210Y-153303592D01*
X135036005Y-153058797D01*
X135065002Y-153035000D01*
X135159975Y-152919275D01*
X135230001Y-152788268D01*
X135230000Y-165710000D01*
X120040000Y-165710000D01*
X120040000Y-160338094D01*
X120064013Y-160348415D01*
X120283000Y-160395000D01*
X120583000Y-160395000D01*
X120583000Y-159387000D01*
X120837000Y-159387000D01*
X120837000Y-160395000D01*
X121137000Y-160395000D01*
X121355987Y-160348415D01*
X121561678Y-160260003D01*
X121746169Y-160133161D01*
X121902369Y-159972764D01*
X122024276Y-159784976D01*
X122104119Y-159561874D01*
X123245881Y-159561874D01*
X123325724Y-159784976D01*
X123447631Y-159972764D01*
X123603831Y-160133161D01*
X123788322Y-160260003D01*
X123994013Y-160348415D01*
X124213000Y-160395000D01*
X124763000Y-160395000D01*
X124763000Y-159387000D01*
X125017000Y-159387000D01*
X125017000Y-160395000D01*
X125567000Y-160395000D01*
X125785987Y-160348415D01*
X125991678Y-160260003D01*
X126176169Y-160133161D01*
X126332369Y-159972764D01*
X126454276Y-159784976D01*
X126534119Y-159561874D01*
X126407954Y-159387000D01*
X125017000Y-159387000D01*
X124763000Y-159387000D01*
X123372046Y-159387000D01*
X123245881Y-159561874D01*
X122104119Y-159561874D01*
X121977954Y-159387000D01*
X120837000Y-159387000D01*
X120583000Y-159387000D01*
X120563000Y-159387000D01*
X120563000Y-159133000D01*
X120583000Y-159133000D01*
X120583000Y-158125000D01*
X120837000Y-158125000D01*
X120837000Y-159133000D01*
X121977954Y-159133000D01*
X122104119Y-158958126D01*
X122024276Y-158735024D01*
X121902369Y-158547236D01*
X121746169Y-158386839D01*
X121561678Y-158259997D01*
X121355987Y-158171585D01*
X121137000Y-158125000D01*
X120837000Y-158125000D01*
X120583000Y-158125000D01*
X120283000Y-158125000D01*
X120064013Y-158171585D01*
X120040000Y-158181906D01*
X120040000Y-151698094D01*
X120064013Y-151708415D01*
X120283000Y-151755000D01*
X120583000Y-151755000D01*
X120583000Y-150747000D01*
X120837000Y-150747000D01*
X120837000Y-151755000D01*
X121137000Y-151755000D01*
X121355987Y-151708415D01*
X121561678Y-151620003D01*
X121746169Y-151493161D01*
X121902369Y-151332764D01*
X122024276Y-151144976D01*
X122104119Y-150921874D01*
X121977954Y-150747000D01*
X120837000Y-150747000D01*
X120583000Y-150747000D01*
X120563000Y-150747000D01*
X120563000Y-150493000D01*
X120583000Y-150493000D01*
X120583000Y-149485000D01*
X120837000Y-149485000D01*
X120837000Y-150493000D01*
X121977954Y-150493000D01*
X122104119Y-150318126D01*
X122024276Y-150095024D01*
X121902369Y-149907236D01*
X121746169Y-149746839D01*
X121561678Y-149619997D01*
X121355987Y-149531585D01*
X121137000Y-149485000D01*
X120837000Y-149485000D01*
X120583000Y-149485000D01*
X120283000Y-149485000D01*
X120064013Y-149531585D01*
X120040000Y-149541906D01*
X120040000Y-144170000D01*
X135230001Y-144170000D01*
X135230001Y-147732730D01*
G36*
X128563011Y-149101003D02*
G01*
X128586809Y-149130001D01*
X128702534Y-149224974D01*
X128834563Y-149295546D01*
X128977824Y-149339003D01*
X129089477Y-149350000D01*
X129089486Y-149350000D01*
X129126809Y-149353676D01*
X129164132Y-149350000D01*
X131515198Y-149350000D01*
X129135199Y-151730000D01*
X127970444Y-151730000D01*
X127884494Y-151659463D01*
X127774180Y-151600498D01*
X127732980Y-151588000D01*
X128006250Y-151588000D01*
X128165000Y-151429250D01*
X128168072Y-151415000D01*
X128155812Y-151290518D01*
X128119502Y-151170820D01*
X128060537Y-151060506D01*
X127981185Y-150963815D01*
X127884494Y-150884463D01*
X127774180Y-150825498D01*
X127654482Y-150789188D01*
X127530000Y-150776928D01*
X126590750Y-150780000D01*
X126498394Y-150872356D01*
X126432002Y-150780332D01*
X126432002Y-150780000D01*
X126431762Y-150780000D01*
X126407954Y-150747000D01*
X125017000Y-150747000D01*
X125017000Y-150767000D01*
X124763000Y-150767000D01*
X124763000Y-150747000D01*
X124743000Y-150747000D01*
X124743000Y-150493000D01*
X124763000Y-150493000D01*
X124763000Y-150473000D01*
X125017000Y-150473000D01*
X125017000Y-150493000D01*
X126407954Y-150493000D01*
X126534119Y-150318126D01*
X126454276Y-150095024D01*
X126332369Y-149907236D01*
X126176169Y-149746839D01*
X125991678Y-149619997D01*
X125785987Y-149531585D01*
X125567000Y-149485000D01*
X124979801Y-149485000D01*
X125801779Y-148663023D01*
X125826614Y-148683405D01*
X125980150Y-148765472D01*
X126146746Y-148816008D01*
X126320000Y-148833072D01*
X127245000Y-148833072D01*
X127418254Y-148816008D01*
X127584850Y-148765472D01*
X127738386Y-148683405D01*
X127872962Y-148572962D01*
X127945988Y-148483979D01*
X128563011Y-149101003D01*
G37*
X128563011Y-149101003D02*
X128586809Y-149130001D01*
X128702534Y-149224974D01*
X128834563Y-149295546D01*
X128977824Y-149339003D01*
X129089477Y-149350000D01*
X129089486Y-149350000D01*
X129126809Y-149353676D01*
X129164132Y-149350000D01*
X131515198Y-149350000D01*
X129135199Y-151730000D01*
X127970444Y-151730000D01*
X127884494Y-151659463D01*
X127774180Y-151600498D01*
X127732980Y-151588000D01*
X128006250Y-151588000D01*
X128165000Y-151429250D01*
X128168072Y-151415000D01*
X128155812Y-151290518D01*
X128119502Y-151170820D01*
X128060537Y-151060506D01*
X127981185Y-150963815D01*
X127884494Y-150884463D01*
X127774180Y-150825498D01*
X127654482Y-150789188D01*
X127530000Y-150776928D01*
X126590750Y-150780000D01*
X126498394Y-150872356D01*
X126432002Y-150780332D01*
X126432002Y-150780000D01*
X126431762Y-150780000D01*
X126407954Y-150747000D01*
X125017000Y-150747000D01*
X125017000Y-150767000D01*
X124763000Y-150767000D01*
X124763000Y-150747000D01*
X124743000Y-150747000D01*
X124743000Y-150493000D01*
X124763000Y-150493000D01*
X124763000Y-150473000D01*
X125017000Y-150473000D01*
X125017000Y-150493000D01*
X126407954Y-150493000D01*
X126534119Y-150318126D01*
X126454276Y-150095024D01*
X126332369Y-149907236D01*
X126176169Y-149746839D01*
X125991678Y-149619997D01*
X125785987Y-149531585D01*
X125567000Y-149485000D01*
X124979801Y-149485000D01*
X125801779Y-148663023D01*
X125826614Y-148683405D01*
X125980150Y-148765472D01*
X126146746Y-148816008D01*
X126320000Y-148833072D01*
X127245000Y-148833072D01*
X127418254Y-148816008D01*
X127584850Y-148765472D01*
X127738386Y-148683405D01*
X127872962Y-148572962D01*
X127945988Y-148483979D01*
X128563011Y-149101003D01*
M02*
