G04 #@! TF.GenerationSoftware,KiCad,Pcbnew,(5.1.5-0-10_14)*
G04 #@! TF.CreationDate,2020-01-06T17:53:19-06:00*
G04 #@! TF.ProjectId,usb-c,7573622d-632e-46b6-9963-61645f706362,rev?*
G04 #@! TF.SameCoordinates,Original*
G04 #@! TF.FileFunction,Legend,Top*
G04 #@! TF.FilePolarity,Positive*
%FSLAX46Y46*%
G04 Gerber Fmt 4.6, Leading zero omitted, Abs format (unit mm)*
G04 Created by KiCad (PCBNEW (5.1.5-0-10_14)) date 2020-01-06 17:53:19*
%MOMM*%
%LPD*%
G04 APERTURE LIST*
%ADD10C,0.125000*%
%ADD11C,0.120000*%
G04 APERTURE END LIST*
D10*
X131111666Y-164008571D02*
X131087857Y-164032380D01*
X131016428Y-164056190D01*
X130968809Y-164056190D01*
X130897380Y-164032380D01*
X130849761Y-163984761D01*
X130825952Y-163937142D01*
X130802142Y-163841904D01*
X130802142Y-163770476D01*
X130825952Y-163675238D01*
X130849761Y-163627619D01*
X130897380Y-163580000D01*
X130968809Y-163556190D01*
X131016428Y-163556190D01*
X131087857Y-163580000D01*
X131111666Y-163603809D01*
X131611666Y-164008571D02*
X131587857Y-164032380D01*
X131516428Y-164056190D01*
X131468809Y-164056190D01*
X131397380Y-164032380D01*
X131349761Y-163984761D01*
X131325952Y-163937142D01*
X131302142Y-163841904D01*
X131302142Y-163770476D01*
X131325952Y-163675238D01*
X131349761Y-163627619D01*
X131397380Y-163580000D01*
X131468809Y-163556190D01*
X131516428Y-163556190D01*
X131587857Y-163580000D01*
X131611666Y-163603809D01*
X131802142Y-163603809D02*
X131825952Y-163580000D01*
X131873571Y-163556190D01*
X131992619Y-163556190D01*
X132040238Y-163580000D01*
X132064047Y-163603809D01*
X132087857Y-163651428D01*
X132087857Y-163699047D01*
X132064047Y-163770476D01*
X131778333Y-164056190D01*
X132087857Y-164056190D01*
X130552142Y-161492380D02*
X130623571Y-161516190D01*
X130742619Y-161516190D01*
X130790238Y-161492380D01*
X130814047Y-161468571D01*
X130837857Y-161420952D01*
X130837857Y-161373333D01*
X130814047Y-161325714D01*
X130790238Y-161301904D01*
X130742619Y-161278095D01*
X130647380Y-161254285D01*
X130599761Y-161230476D01*
X130575952Y-161206666D01*
X130552142Y-161159047D01*
X130552142Y-161111428D01*
X130575952Y-161063809D01*
X130599761Y-161040000D01*
X130647380Y-161016190D01*
X130766428Y-161016190D01*
X130837857Y-161040000D01*
X131218809Y-161254285D02*
X131290238Y-161278095D01*
X131314047Y-161301904D01*
X131337857Y-161349523D01*
X131337857Y-161420952D01*
X131314047Y-161468571D01*
X131290238Y-161492380D01*
X131242619Y-161516190D01*
X131052142Y-161516190D01*
X131052142Y-161016190D01*
X131218809Y-161016190D01*
X131266428Y-161040000D01*
X131290238Y-161063809D01*
X131314047Y-161111428D01*
X131314047Y-161159047D01*
X131290238Y-161206666D01*
X131266428Y-161230476D01*
X131218809Y-161254285D01*
X131052142Y-161254285D01*
X131552142Y-161016190D02*
X131552142Y-161420952D01*
X131575952Y-161468571D01*
X131599761Y-161492380D01*
X131647380Y-161516190D01*
X131742619Y-161516190D01*
X131790238Y-161492380D01*
X131814047Y-161468571D01*
X131837857Y-161420952D01*
X131837857Y-161016190D01*
X132337857Y-161516190D02*
X132052142Y-161516190D01*
X132195000Y-161516190D02*
X132195000Y-161016190D01*
X132147380Y-161087619D01*
X132099761Y-161135238D01*
X132052142Y-161159047D01*
X131004523Y-158976190D02*
X131004523Y-158476190D01*
X131123571Y-158476190D01*
X131195000Y-158500000D01*
X131242619Y-158547619D01*
X131266428Y-158595238D01*
X131290238Y-158690476D01*
X131290238Y-158761904D01*
X131266428Y-158857142D01*
X131242619Y-158904761D01*
X131195000Y-158952380D01*
X131123571Y-158976190D01*
X131004523Y-158976190D01*
X131504523Y-158785714D02*
X131885476Y-158785714D01*
X131695000Y-158976190D02*
X131695000Y-158595238D01*
X131004523Y-156436190D02*
X131004523Y-155936190D01*
X131123571Y-155936190D01*
X131195000Y-155960000D01*
X131242619Y-156007619D01*
X131266428Y-156055238D01*
X131290238Y-156150476D01*
X131290238Y-156221904D01*
X131266428Y-156317142D01*
X131242619Y-156364761D01*
X131195000Y-156412380D01*
X131123571Y-156436190D01*
X131004523Y-156436190D01*
X131504523Y-156245714D02*
X131885476Y-156245714D01*
X131111666Y-153848571D02*
X131087857Y-153872380D01*
X131016428Y-153896190D01*
X130968809Y-153896190D01*
X130897380Y-153872380D01*
X130849761Y-153824761D01*
X130825952Y-153777142D01*
X130802142Y-153681904D01*
X130802142Y-153610476D01*
X130825952Y-153515238D01*
X130849761Y-153467619D01*
X130897380Y-153420000D01*
X130968809Y-153396190D01*
X131016428Y-153396190D01*
X131087857Y-153420000D01*
X131111666Y-153443809D01*
X131611666Y-153848571D02*
X131587857Y-153872380D01*
X131516428Y-153896190D01*
X131468809Y-153896190D01*
X131397380Y-153872380D01*
X131349761Y-153824761D01*
X131325952Y-153777142D01*
X131302142Y-153681904D01*
X131302142Y-153610476D01*
X131325952Y-153515238D01*
X131349761Y-153467619D01*
X131397380Y-153420000D01*
X131468809Y-153396190D01*
X131516428Y-153396190D01*
X131587857Y-153420000D01*
X131611666Y-153443809D01*
X132087857Y-153896190D02*
X131802142Y-153896190D01*
X131945000Y-153896190D02*
X131945000Y-153396190D01*
X131897380Y-153467619D01*
X131849761Y-153515238D01*
X131802142Y-153539047D01*
X130552142Y-151332380D02*
X130623571Y-151356190D01*
X130742619Y-151356190D01*
X130790238Y-151332380D01*
X130814047Y-151308571D01*
X130837857Y-151260952D01*
X130837857Y-151213333D01*
X130814047Y-151165714D01*
X130790238Y-151141904D01*
X130742619Y-151118095D01*
X130647380Y-151094285D01*
X130599761Y-151070476D01*
X130575952Y-151046666D01*
X130552142Y-150999047D01*
X130552142Y-150951428D01*
X130575952Y-150903809D01*
X130599761Y-150880000D01*
X130647380Y-150856190D01*
X130766428Y-150856190D01*
X130837857Y-150880000D01*
X131218809Y-151094285D02*
X131290238Y-151118095D01*
X131314047Y-151141904D01*
X131337857Y-151189523D01*
X131337857Y-151260952D01*
X131314047Y-151308571D01*
X131290238Y-151332380D01*
X131242619Y-151356190D01*
X131052142Y-151356190D01*
X131052142Y-150856190D01*
X131218809Y-150856190D01*
X131266428Y-150880000D01*
X131290238Y-150903809D01*
X131314047Y-150951428D01*
X131314047Y-150999047D01*
X131290238Y-151046666D01*
X131266428Y-151070476D01*
X131218809Y-151094285D01*
X131052142Y-151094285D01*
X131552142Y-150856190D02*
X131552142Y-151260952D01*
X131575952Y-151308571D01*
X131599761Y-151332380D01*
X131647380Y-151356190D01*
X131742619Y-151356190D01*
X131790238Y-151332380D01*
X131814047Y-151308571D01*
X131837857Y-151260952D01*
X131837857Y-150856190D01*
X132052142Y-150903809D02*
X132075952Y-150880000D01*
X132123571Y-150856190D01*
X132242619Y-150856190D01*
X132290238Y-150880000D01*
X132314047Y-150903809D01*
X132337857Y-150951428D01*
X132337857Y-150999047D01*
X132314047Y-151070476D01*
X132028333Y-151356190D01*
X132337857Y-151356190D01*
X130528333Y-148316190D02*
X130695000Y-148816190D01*
X130861666Y-148316190D01*
X131195000Y-148554285D02*
X131266428Y-148578095D01*
X131290238Y-148601904D01*
X131314047Y-148649523D01*
X131314047Y-148720952D01*
X131290238Y-148768571D01*
X131266428Y-148792380D01*
X131218809Y-148816190D01*
X131028333Y-148816190D01*
X131028333Y-148316190D01*
X131195000Y-148316190D01*
X131242619Y-148340000D01*
X131266428Y-148363809D01*
X131290238Y-148411428D01*
X131290238Y-148459047D01*
X131266428Y-148506666D01*
X131242619Y-148530476D01*
X131195000Y-148554285D01*
X131028333Y-148554285D01*
X131528333Y-148316190D02*
X131528333Y-148720952D01*
X131552142Y-148768571D01*
X131575952Y-148792380D01*
X131623571Y-148816190D01*
X131718809Y-148816190D01*
X131766428Y-148792380D01*
X131790238Y-148768571D01*
X131814047Y-148720952D01*
X131814047Y-148316190D01*
X132028333Y-148792380D02*
X132099761Y-148816190D01*
X132218809Y-148816190D01*
X132266428Y-148792380D01*
X132290238Y-148768571D01*
X132314047Y-148720952D01*
X132314047Y-148673333D01*
X132290238Y-148625714D01*
X132266428Y-148601904D01*
X132218809Y-148578095D01*
X132123571Y-148554285D01*
X132075952Y-148530476D01*
X132052142Y-148506666D01*
X132028333Y-148459047D01*
X132028333Y-148411428D01*
X132052142Y-148363809D01*
X132075952Y-148340000D01*
X132123571Y-148316190D01*
X132242619Y-148316190D01*
X132314047Y-148340000D01*
X131064047Y-145800000D02*
X131016428Y-145776190D01*
X130945000Y-145776190D01*
X130873571Y-145800000D01*
X130825952Y-145847619D01*
X130802142Y-145895238D01*
X130778333Y-145990476D01*
X130778333Y-146061904D01*
X130802142Y-146157142D01*
X130825952Y-146204761D01*
X130873571Y-146252380D01*
X130945000Y-146276190D01*
X130992619Y-146276190D01*
X131064047Y-146252380D01*
X131087857Y-146228571D01*
X131087857Y-146061904D01*
X130992619Y-146061904D01*
X131302142Y-146276190D02*
X131302142Y-145776190D01*
X131587857Y-146276190D01*
X131587857Y-145776190D01*
X131825952Y-146276190D02*
X131825952Y-145776190D01*
X131945000Y-145776190D01*
X132016428Y-145800000D01*
X132064047Y-145847619D01*
X132087857Y-145895238D01*
X132111666Y-145990476D01*
X132111666Y-146061904D01*
X132087857Y-146157142D01*
X132064047Y-146204761D01*
X132016428Y-146252380D01*
X131945000Y-146276190D01*
X131825952Y-146276190D01*
D11*
X128872064Y-161650000D02*
X127667936Y-161650000D01*
X128872064Y-163470000D02*
X127667936Y-163470000D01*
X128872064Y-146410000D02*
X127667936Y-146410000D01*
X128872064Y-148230000D02*
X127667936Y-148230000D01*
M02*
