G04 #@! TF.GenerationSoftware,KiCad,Pcbnew,(5.1.5-0-10_14)*
G04 #@! TF.CreationDate,2020-01-05T23:21:06-06:00*
G04 #@! TF.ProjectId,usb-c,7573622d-632e-46b6-9963-61645f706362,rev?*
G04 #@! TF.SameCoordinates,Original*
G04 #@! TF.FileFunction,Paste,Top*
G04 #@! TF.FilePolarity,Positive*
%FSLAX46Y46*%
G04 Gerber Fmt 4.6, Leading zero omitted, Abs format (unit mm)*
G04 Created by KiCad (PCBNEW (5.1.5-0-10_14)) date 2020-01-05 23:21:06*
%MOMM*%
%LPD*%
G04 APERTURE LIST*
%ADD10R,2.450000X0.600000*%
%ADD11R,2.450000X0.300000*%
%ADD12C,0.100000*%
G04 APERTURE END LIST*
D10*
X126305000Y-158165000D03*
X126305000Y-151715000D03*
X126305000Y-157390000D03*
X126305000Y-152490000D03*
D11*
X126305000Y-153190000D03*
X126305000Y-156690000D03*
X126305000Y-153690000D03*
X126305000Y-156190000D03*
X126305000Y-154190000D03*
X126305000Y-155690000D03*
X126305000Y-155190000D03*
X126305000Y-154690000D03*
D12*
G36*
X127269504Y-161686204D02*
G01*
X127293773Y-161689804D01*
X127317571Y-161695765D01*
X127340671Y-161704030D01*
X127362849Y-161714520D01*
X127383893Y-161727133D01*
X127403598Y-161741747D01*
X127421777Y-161758223D01*
X127438253Y-161776402D01*
X127452867Y-161796107D01*
X127465480Y-161817151D01*
X127475970Y-161839329D01*
X127484235Y-161862429D01*
X127490196Y-161886227D01*
X127493796Y-161910496D01*
X127495000Y-161935000D01*
X127495000Y-163185000D01*
X127493796Y-163209504D01*
X127490196Y-163233773D01*
X127484235Y-163257571D01*
X127475970Y-163280671D01*
X127465480Y-163302849D01*
X127452867Y-163323893D01*
X127438253Y-163343598D01*
X127421777Y-163361777D01*
X127403598Y-163378253D01*
X127383893Y-163392867D01*
X127362849Y-163405480D01*
X127340671Y-163415970D01*
X127317571Y-163424235D01*
X127293773Y-163430196D01*
X127269504Y-163433796D01*
X127245000Y-163435000D01*
X126320000Y-163435000D01*
X126295496Y-163433796D01*
X126271227Y-163430196D01*
X126247429Y-163424235D01*
X126224329Y-163415970D01*
X126202151Y-163405480D01*
X126181107Y-163392867D01*
X126161402Y-163378253D01*
X126143223Y-163361777D01*
X126126747Y-163343598D01*
X126112133Y-163323893D01*
X126099520Y-163302849D01*
X126089030Y-163280671D01*
X126080765Y-163257571D01*
X126074804Y-163233773D01*
X126071204Y-163209504D01*
X126070000Y-163185000D01*
X126070000Y-161935000D01*
X126071204Y-161910496D01*
X126074804Y-161886227D01*
X126080765Y-161862429D01*
X126089030Y-161839329D01*
X126099520Y-161817151D01*
X126112133Y-161796107D01*
X126126747Y-161776402D01*
X126143223Y-161758223D01*
X126161402Y-161741747D01*
X126181107Y-161727133D01*
X126202151Y-161714520D01*
X126224329Y-161704030D01*
X126247429Y-161695765D01*
X126271227Y-161689804D01*
X126295496Y-161686204D01*
X126320000Y-161685000D01*
X127245000Y-161685000D01*
X127269504Y-161686204D01*
G37*
G36*
X130244504Y-161686204D02*
G01*
X130268773Y-161689804D01*
X130292571Y-161695765D01*
X130315671Y-161704030D01*
X130337849Y-161714520D01*
X130358893Y-161727133D01*
X130378598Y-161741747D01*
X130396777Y-161758223D01*
X130413253Y-161776402D01*
X130427867Y-161796107D01*
X130440480Y-161817151D01*
X130450970Y-161839329D01*
X130459235Y-161862429D01*
X130465196Y-161886227D01*
X130468796Y-161910496D01*
X130470000Y-161935000D01*
X130470000Y-163185000D01*
X130468796Y-163209504D01*
X130465196Y-163233773D01*
X130459235Y-163257571D01*
X130450970Y-163280671D01*
X130440480Y-163302849D01*
X130427867Y-163323893D01*
X130413253Y-163343598D01*
X130396777Y-163361777D01*
X130378598Y-163378253D01*
X130358893Y-163392867D01*
X130337849Y-163405480D01*
X130315671Y-163415970D01*
X130292571Y-163424235D01*
X130268773Y-163430196D01*
X130244504Y-163433796D01*
X130220000Y-163435000D01*
X129295000Y-163435000D01*
X129270496Y-163433796D01*
X129246227Y-163430196D01*
X129222429Y-163424235D01*
X129199329Y-163415970D01*
X129177151Y-163405480D01*
X129156107Y-163392867D01*
X129136402Y-163378253D01*
X129118223Y-163361777D01*
X129101747Y-163343598D01*
X129087133Y-163323893D01*
X129074520Y-163302849D01*
X129064030Y-163280671D01*
X129055765Y-163257571D01*
X129049804Y-163233773D01*
X129046204Y-163209504D01*
X129045000Y-163185000D01*
X129045000Y-161935000D01*
X129046204Y-161910496D01*
X129049804Y-161886227D01*
X129055765Y-161862429D01*
X129064030Y-161839329D01*
X129074520Y-161817151D01*
X129087133Y-161796107D01*
X129101747Y-161776402D01*
X129118223Y-161758223D01*
X129136402Y-161741747D01*
X129156107Y-161727133D01*
X129177151Y-161714520D01*
X129199329Y-161704030D01*
X129222429Y-161695765D01*
X129246227Y-161689804D01*
X129270496Y-161686204D01*
X129295000Y-161685000D01*
X130220000Y-161685000D01*
X130244504Y-161686204D01*
G37*
G36*
X127269504Y-146446204D02*
G01*
X127293773Y-146449804D01*
X127317571Y-146455765D01*
X127340671Y-146464030D01*
X127362849Y-146474520D01*
X127383893Y-146487133D01*
X127403598Y-146501747D01*
X127421777Y-146518223D01*
X127438253Y-146536402D01*
X127452867Y-146556107D01*
X127465480Y-146577151D01*
X127475970Y-146599329D01*
X127484235Y-146622429D01*
X127490196Y-146646227D01*
X127493796Y-146670496D01*
X127495000Y-146695000D01*
X127495000Y-147945000D01*
X127493796Y-147969504D01*
X127490196Y-147993773D01*
X127484235Y-148017571D01*
X127475970Y-148040671D01*
X127465480Y-148062849D01*
X127452867Y-148083893D01*
X127438253Y-148103598D01*
X127421777Y-148121777D01*
X127403598Y-148138253D01*
X127383893Y-148152867D01*
X127362849Y-148165480D01*
X127340671Y-148175970D01*
X127317571Y-148184235D01*
X127293773Y-148190196D01*
X127269504Y-148193796D01*
X127245000Y-148195000D01*
X126320000Y-148195000D01*
X126295496Y-148193796D01*
X126271227Y-148190196D01*
X126247429Y-148184235D01*
X126224329Y-148175970D01*
X126202151Y-148165480D01*
X126181107Y-148152867D01*
X126161402Y-148138253D01*
X126143223Y-148121777D01*
X126126747Y-148103598D01*
X126112133Y-148083893D01*
X126099520Y-148062849D01*
X126089030Y-148040671D01*
X126080765Y-148017571D01*
X126074804Y-147993773D01*
X126071204Y-147969504D01*
X126070000Y-147945000D01*
X126070000Y-146695000D01*
X126071204Y-146670496D01*
X126074804Y-146646227D01*
X126080765Y-146622429D01*
X126089030Y-146599329D01*
X126099520Y-146577151D01*
X126112133Y-146556107D01*
X126126747Y-146536402D01*
X126143223Y-146518223D01*
X126161402Y-146501747D01*
X126181107Y-146487133D01*
X126202151Y-146474520D01*
X126224329Y-146464030D01*
X126247429Y-146455765D01*
X126271227Y-146449804D01*
X126295496Y-146446204D01*
X126320000Y-146445000D01*
X127245000Y-146445000D01*
X127269504Y-146446204D01*
G37*
G36*
X130244504Y-146446204D02*
G01*
X130268773Y-146449804D01*
X130292571Y-146455765D01*
X130315671Y-146464030D01*
X130337849Y-146474520D01*
X130358893Y-146487133D01*
X130378598Y-146501747D01*
X130396777Y-146518223D01*
X130413253Y-146536402D01*
X130427867Y-146556107D01*
X130440480Y-146577151D01*
X130450970Y-146599329D01*
X130459235Y-146622429D01*
X130465196Y-146646227D01*
X130468796Y-146670496D01*
X130470000Y-146695000D01*
X130470000Y-147945000D01*
X130468796Y-147969504D01*
X130465196Y-147993773D01*
X130459235Y-148017571D01*
X130450970Y-148040671D01*
X130440480Y-148062849D01*
X130427867Y-148083893D01*
X130413253Y-148103598D01*
X130396777Y-148121777D01*
X130378598Y-148138253D01*
X130358893Y-148152867D01*
X130337849Y-148165480D01*
X130315671Y-148175970D01*
X130292571Y-148184235D01*
X130268773Y-148190196D01*
X130244504Y-148193796D01*
X130220000Y-148195000D01*
X129295000Y-148195000D01*
X129270496Y-148193796D01*
X129246227Y-148190196D01*
X129222429Y-148184235D01*
X129199329Y-148175970D01*
X129177151Y-148165480D01*
X129156107Y-148152867D01*
X129136402Y-148138253D01*
X129118223Y-148121777D01*
X129101747Y-148103598D01*
X129087133Y-148083893D01*
X129074520Y-148062849D01*
X129064030Y-148040671D01*
X129055765Y-148017571D01*
X129049804Y-147993773D01*
X129046204Y-147969504D01*
X129045000Y-147945000D01*
X129045000Y-146695000D01*
X129046204Y-146670496D01*
X129049804Y-146646227D01*
X129055765Y-146622429D01*
X129064030Y-146599329D01*
X129074520Y-146577151D01*
X129087133Y-146556107D01*
X129101747Y-146536402D01*
X129118223Y-146518223D01*
X129136402Y-146501747D01*
X129156107Y-146487133D01*
X129177151Y-146474520D01*
X129199329Y-146464030D01*
X129222429Y-146455765D01*
X129246227Y-146449804D01*
X129270496Y-146446204D01*
X129295000Y-146445000D01*
X130220000Y-146445000D01*
X130244504Y-146446204D01*
G37*
M02*
