G04 #@! TF.GenerationSoftware,KiCad,Pcbnew,(5.1.5-0-10_14)*
G04 #@! TF.CreationDate,2020-01-05T23:21:06-06:00*
G04 #@! TF.ProjectId,usb-c,7573622d-632e-46b6-9963-61645f706362,rev?*
G04 #@! TF.SameCoordinates,Original*
G04 #@! TF.FileFunction,Legend,Bot*
G04 #@! TF.FilePolarity,Positive*
%FSLAX46Y46*%
G04 Gerber Fmt 4.6, Leading zero omitted, Abs format (unit mm)*
G04 Created by KiCad (PCBNEW (5.1.5-0-10_14)) date 2020-01-05 23:21:06*
%MOMM*%
%LPD*%
G04 APERTURE LIST*
%ADD10C,0.150000*%
%ADD11C,0.120000*%
G04 APERTURE END LIST*
D10*
X127722380Y-150320952D02*
X128436666Y-150320952D01*
X128579523Y-150273333D01*
X128674761Y-150178095D01*
X128722380Y-150035238D01*
X128722380Y-149940000D01*
X128722380Y-151273333D02*
X128722380Y-150797142D01*
X127722380Y-150797142D01*
X128627142Y-152178095D02*
X128674761Y-152130476D01*
X128722380Y-151987619D01*
X128722380Y-151892380D01*
X128674761Y-151749523D01*
X128579523Y-151654285D01*
X128484285Y-151606666D01*
X128293809Y-151559047D01*
X128150952Y-151559047D01*
X127960476Y-151606666D01*
X127865238Y-151654285D01*
X127770000Y-151749523D01*
X127722380Y-151892380D01*
X127722380Y-151987619D01*
X127770000Y-152130476D01*
X127817619Y-152178095D01*
X127722380Y-152892380D02*
X128436666Y-152892380D01*
X128579523Y-152844761D01*
X128674761Y-152749523D01*
X128722380Y-152606666D01*
X128722380Y-152511428D01*
X128722380Y-153844761D02*
X128722380Y-153368571D01*
X127722380Y-153368571D01*
X128627142Y-154749523D02*
X128674761Y-154701904D01*
X128722380Y-154559047D01*
X128722380Y-154463809D01*
X128674761Y-154320952D01*
X128579523Y-154225714D01*
X128484285Y-154178095D01*
X128293809Y-154130476D01*
X128150952Y-154130476D01*
X127960476Y-154178095D01*
X127865238Y-154225714D01*
X127770000Y-154320952D01*
X127722380Y-154463809D01*
X127722380Y-154559047D01*
X127770000Y-154701904D01*
X127817619Y-154749523D01*
X127722380Y-155463809D02*
X128436666Y-155463809D01*
X128579523Y-155416190D01*
X128674761Y-155320952D01*
X128722380Y-155178095D01*
X128722380Y-155082857D01*
X128722380Y-156416190D02*
X128722380Y-155940000D01*
X127722380Y-155940000D01*
X128627142Y-157320952D02*
X128674761Y-157273333D01*
X128722380Y-157130476D01*
X128722380Y-157035238D01*
X128674761Y-156892380D01*
X128579523Y-156797142D01*
X128484285Y-156749523D01*
X128293809Y-156701904D01*
X128150952Y-156701904D01*
X127960476Y-156749523D01*
X127865238Y-156797142D01*
X127770000Y-156892380D01*
X127722380Y-157035238D01*
X127722380Y-157130476D01*
X127770000Y-157273333D01*
X127817619Y-157320952D01*
X127722380Y-158035238D02*
X128436666Y-158035238D01*
X128579523Y-157987619D01*
X128674761Y-157892380D01*
X128722380Y-157749523D01*
X128722380Y-157654285D01*
X128722380Y-158987619D02*
X128722380Y-158511428D01*
X127722380Y-158511428D01*
X128627142Y-159892380D02*
X128674761Y-159844761D01*
X128722380Y-159701904D01*
X128722380Y-159606666D01*
X128674761Y-159463809D01*
X128579523Y-159368571D01*
X128484285Y-159320952D01*
X128293809Y-159273333D01*
X128150952Y-159273333D01*
X127960476Y-159320952D01*
X127865238Y-159368571D01*
X127770000Y-159463809D01*
X127722380Y-159606666D01*
X127722380Y-159701904D01*
X127770000Y-159844761D01*
X127817619Y-159892380D01*
X130262380Y-148892380D02*
X131071904Y-148892380D01*
X131167142Y-148940000D01*
X131214761Y-148987619D01*
X131262380Y-149082857D01*
X131262380Y-149273333D01*
X131214761Y-149368571D01*
X131167142Y-149416190D01*
X131071904Y-149463809D01*
X130262380Y-149463809D01*
X131214761Y-149892380D02*
X131262380Y-150035238D01*
X131262380Y-150273333D01*
X131214761Y-150368571D01*
X131167142Y-150416190D01*
X131071904Y-150463809D01*
X130976666Y-150463809D01*
X130881428Y-150416190D01*
X130833809Y-150368571D01*
X130786190Y-150273333D01*
X130738571Y-150082857D01*
X130690952Y-149987619D01*
X130643333Y-149940000D01*
X130548095Y-149892380D01*
X130452857Y-149892380D01*
X130357619Y-149940000D01*
X130310000Y-149987619D01*
X130262380Y-150082857D01*
X130262380Y-150320952D01*
X130310000Y-150463809D01*
X130738571Y-151225714D02*
X130786190Y-151368571D01*
X130833809Y-151416190D01*
X130929047Y-151463809D01*
X131071904Y-151463809D01*
X131167142Y-151416190D01*
X131214761Y-151368571D01*
X131262380Y-151273333D01*
X131262380Y-150892380D01*
X130262380Y-150892380D01*
X130262380Y-151225714D01*
X130310000Y-151320952D01*
X130357619Y-151368571D01*
X130452857Y-151416190D01*
X130548095Y-151416190D01*
X130643333Y-151368571D01*
X130690952Y-151320952D01*
X130738571Y-151225714D01*
X130738571Y-150892380D01*
X130881428Y-151892380D02*
X130881428Y-152654285D01*
X131167142Y-153701904D02*
X131214761Y-153654285D01*
X131262380Y-153511428D01*
X131262380Y-153416190D01*
X131214761Y-153273333D01*
X131119523Y-153178095D01*
X131024285Y-153130476D01*
X130833809Y-153082857D01*
X130690952Y-153082857D01*
X130500476Y-153130476D01*
X130405238Y-153178095D01*
X130310000Y-153273333D01*
X130262380Y-153416190D01*
X130262380Y-153511428D01*
X130310000Y-153654285D01*
X130357619Y-153701904D01*
X130738571Y-155225714D02*
X130786190Y-155368571D01*
X130833809Y-155416190D01*
X130929047Y-155463809D01*
X131071904Y-155463809D01*
X131167142Y-155416190D01*
X131214761Y-155368571D01*
X131262380Y-155273333D01*
X131262380Y-154892380D01*
X130262380Y-154892380D01*
X130262380Y-155225714D01*
X130310000Y-155320952D01*
X130357619Y-155368571D01*
X130452857Y-155416190D01*
X130548095Y-155416190D01*
X130643333Y-155368571D01*
X130690952Y-155320952D01*
X130738571Y-155225714D01*
X130738571Y-154892380D01*
X131262380Y-155892380D02*
X130595714Y-155892380D01*
X130786190Y-155892380D02*
X130690952Y-155940000D01*
X130643333Y-155987619D01*
X130595714Y-156082857D01*
X130595714Y-156178095D01*
X131214761Y-156892380D02*
X131262380Y-156797142D01*
X131262380Y-156606666D01*
X131214761Y-156511428D01*
X131119523Y-156463809D01*
X130738571Y-156463809D01*
X130643333Y-156511428D01*
X130595714Y-156606666D01*
X130595714Y-156797142D01*
X130643333Y-156892380D01*
X130738571Y-156940000D01*
X130833809Y-156940000D01*
X130929047Y-156463809D01*
X131262380Y-157797142D02*
X130738571Y-157797142D01*
X130643333Y-157749523D01*
X130595714Y-157654285D01*
X130595714Y-157463809D01*
X130643333Y-157368571D01*
X131214761Y-157797142D02*
X131262380Y-157701904D01*
X131262380Y-157463809D01*
X131214761Y-157368571D01*
X131119523Y-157320952D01*
X131024285Y-157320952D01*
X130929047Y-157368571D01*
X130881428Y-157463809D01*
X130881428Y-157701904D01*
X130833809Y-157797142D01*
X131262380Y-158273333D02*
X130262380Y-158273333D01*
X130881428Y-158368571D02*
X131262380Y-158654285D01*
X130595714Y-158654285D02*
X130976666Y-158273333D01*
X131262380Y-159225714D02*
X131214761Y-159130476D01*
X131167142Y-159082857D01*
X131071904Y-159035238D01*
X130786190Y-159035238D01*
X130690952Y-159082857D01*
X130643333Y-159130476D01*
X130595714Y-159225714D01*
X130595714Y-159368571D01*
X130643333Y-159463809D01*
X130690952Y-159511428D01*
X130786190Y-159559047D01*
X131071904Y-159559047D01*
X131167142Y-159511428D01*
X131214761Y-159463809D01*
X131262380Y-159368571D01*
X131262380Y-159225714D01*
X130595714Y-160416190D02*
X131262380Y-160416190D01*
X130595714Y-159987619D02*
X131119523Y-159987619D01*
X131214761Y-160035238D01*
X131262380Y-160130476D01*
X131262380Y-160273333D01*
X131214761Y-160368571D01*
X131167142Y-160416190D01*
X130595714Y-160749523D02*
X130595714Y-161130476D01*
X130262380Y-160892380D02*
X131119523Y-160892380D01*
X131214761Y-160940000D01*
X131262380Y-161035238D01*
X131262380Y-161130476D01*
X129468571Y-150201904D02*
X129468571Y-149868571D01*
X129992380Y-149868571D02*
X128992380Y-149868571D01*
X128992380Y-150344761D01*
X129992380Y-150725714D02*
X129325714Y-150725714D01*
X128992380Y-150725714D02*
X129040000Y-150678095D01*
X129087619Y-150725714D01*
X129040000Y-150773333D01*
X128992380Y-150725714D01*
X129087619Y-150725714D01*
X129325714Y-151201904D02*
X129992380Y-151201904D01*
X129420952Y-151201904D02*
X129373333Y-151249523D01*
X129325714Y-151344761D01*
X129325714Y-151487619D01*
X129373333Y-151582857D01*
X129468571Y-151630476D01*
X129992380Y-151630476D01*
X129325714Y-152106666D02*
X129992380Y-152106666D01*
X129420952Y-152106666D02*
X129373333Y-152154285D01*
X129325714Y-152249523D01*
X129325714Y-152392380D01*
X129373333Y-152487619D01*
X129468571Y-152535238D01*
X129992380Y-152535238D01*
X128992380Y-153630476D02*
X129992380Y-153963809D01*
X128992380Y-154297142D01*
X129992380Y-154773333D02*
X129944761Y-154678095D01*
X129897142Y-154630476D01*
X129801904Y-154582857D01*
X129516190Y-154582857D01*
X129420952Y-154630476D01*
X129373333Y-154678095D01*
X129325714Y-154773333D01*
X129325714Y-154916190D01*
X129373333Y-155011428D01*
X129420952Y-155059047D01*
X129516190Y-155106666D01*
X129801904Y-155106666D01*
X129897142Y-155059047D01*
X129944761Y-155011428D01*
X129992380Y-154916190D01*
X129992380Y-154773333D01*
X129992380Y-155678095D02*
X129944761Y-155582857D01*
X129897142Y-155535238D01*
X129801904Y-155487619D01*
X129516190Y-155487619D01*
X129420952Y-155535238D01*
X129373333Y-155582857D01*
X129325714Y-155678095D01*
X129325714Y-155820952D01*
X129373333Y-155916190D01*
X129420952Y-155963809D01*
X129516190Y-156011428D01*
X129801904Y-156011428D01*
X129897142Y-155963809D01*
X129944761Y-155916190D01*
X129992380Y-155820952D01*
X129992380Y-155678095D01*
X129992380Y-156440000D02*
X129325714Y-156440000D01*
X129516190Y-156440000D02*
X129420952Y-156487619D01*
X129373333Y-156535238D01*
X129325714Y-156630476D01*
X129325714Y-156725714D01*
X129992380Y-157059047D02*
X128992380Y-157059047D01*
X129992380Y-157487619D02*
X129468571Y-157487619D01*
X129373333Y-157440000D01*
X129325714Y-157344761D01*
X129325714Y-157201904D01*
X129373333Y-157106666D01*
X129420952Y-157059047D01*
X129944761Y-158344761D02*
X129992380Y-158249523D01*
X129992380Y-158059047D01*
X129944761Y-157963809D01*
X129849523Y-157916190D01*
X129468571Y-157916190D01*
X129373333Y-157963809D01*
X129325714Y-158059047D01*
X129325714Y-158249523D01*
X129373333Y-158344761D01*
X129468571Y-158392380D01*
X129563809Y-158392380D01*
X129659047Y-157916190D01*
X129944761Y-159201904D02*
X129992380Y-159106666D01*
X129992380Y-158916190D01*
X129944761Y-158820952D01*
X129849523Y-158773333D01*
X129468571Y-158773333D01*
X129373333Y-158820952D01*
X129325714Y-158916190D01*
X129325714Y-159106666D01*
X129373333Y-159201904D01*
X129468571Y-159249523D01*
X129563809Y-159249523D01*
X129659047Y-158773333D01*
X129944761Y-159630476D02*
X129992380Y-159725714D01*
X129992380Y-159916190D01*
X129944761Y-160011428D01*
X129849523Y-160059047D01*
X129801904Y-160059047D01*
X129706666Y-160011428D01*
X129659047Y-159916190D01*
X129659047Y-159773333D01*
X129611428Y-159678095D01*
X129516190Y-159630476D01*
X129468571Y-159630476D01*
X129373333Y-159678095D01*
X129325714Y-159773333D01*
X129325714Y-159916190D01*
X129373333Y-160011428D01*
D11*
X132020000Y-165160000D02*
X133350000Y-165160000D01*
X132020000Y-163830000D02*
X132020000Y-165160000D01*
X132020000Y-162560000D02*
X134680000Y-162560000D01*
X134680000Y-162560000D02*
X134680000Y-144720000D01*
X132020000Y-162560000D02*
X132020000Y-144720000D01*
X132020000Y-144720000D02*
X134680000Y-144720000D01*
M02*
